<mxfile host="app.diagrams.net" modified="2023-06-05T15:01:05.179Z" agent="Mozilla/5.0 (Windows NT 10.0; Win64; x64; rv:102.0) Gecko/20100101 Firefox/102.0" etag="K4NhL9GPTAG_vqlKOdlU" version="21.3.7" type="device">
  <diagram name="Page-1" id="syiwXinaag6JpJGJ4O7a">
    <mxGraphModel dx="1531" dy="1024" grid="0" gridSize="10" guides="1" tooltips="1" connect="1" arrows="1" fold="1" page="0" pageScale="1" pageWidth="827" pageHeight="1169" math="0" shadow="0">
      <root>
        <mxCell id="0" />
        <mxCell id="1" parent="0" />
        <mxCell id="SIMpeuZWA_iWC_UPT69h-1" value="Java&lt;span style=&quot;white-space: pre;&quot;&gt;&#x9;&lt;/span&gt;&lt;span style=&quot;white-space: pre;&quot;&gt;&#x9;&lt;/span&gt;&lt;span style=&quot;white-space: pre;&quot;&gt;&#x9;&lt;/span&gt;&lt;span style=&quot;white-space: pre;&quot;&gt;&#x9;&lt;/span&gt;&lt;span style=&quot;white-space: pre;&quot;&gt;&#x9;&lt;/span&gt;&lt;span style=&quot;white-space: pre;&quot;&gt;&#x9;&lt;/span&gt;&lt;span style=&quot;white-space: pre;&quot;&gt;&#x9;&lt;/span&gt;&lt;span style=&quot;white-space: pre;&quot;&gt;&#x9;&lt;/span&gt;&lt;span style=&quot;white-space: pre;&quot;&gt;&#x9;&lt;/span&gt;&lt;span style=&quot;white-space: pre;&quot;&gt;&#x9;&lt;/span&gt;&lt;span style=&quot;white-space: pre;&quot;&gt;&#x9;&lt;/span&gt;- [] X" style="swimlane;whiteSpace=wrap;html=1;fontSize=16;" vertex="1" parent="1">
          <mxGeometry x="-398" y="-64" width="533" height="491" as="geometry" />
        </mxCell>
        <mxCell id="SIMpeuZWA_iWC_UPT69h-2" value="JPanel Champs" style="swimlane;whiteSpace=wrap;html=1;fontSize=16;" vertex="1" parent="SIMpeuZWA_iWC_UPT69h-1">
          <mxGeometry x="7" y="31" width="519" height="339" as="geometry" />
        </mxCell>
        <mxCell id="SIMpeuZWA_iWC_UPT69h-12" value="" style="endArrow=none;dashed=1;html=1;rounded=0;fontSize=12;startSize=8;endSize=8;curved=1;" edge="1" parent="SIMpeuZWA_iWC_UPT69h-2">
          <mxGeometry width="50" height="50" relative="1" as="geometry">
            <mxPoint x="-2" y="214" as="sourcePoint" />
            <mxPoint x="514" y="214" as="targetPoint" />
          </mxGeometry>
        </mxCell>
        <mxCell id="SIMpeuZWA_iWC_UPT69h-13" value="" style="endArrow=none;dashed=1;html=1;rounded=0;fontSize=12;startSize=8;endSize=8;curved=1;" edge="1" parent="SIMpeuZWA_iWC_UPT69h-2">
          <mxGeometry width="50" height="50" relative="1" as="geometry">
            <mxPoint y="129" as="sourcePoint" />
            <mxPoint x="516" y="129" as="targetPoint" />
          </mxGeometry>
        </mxCell>
        <mxCell id="SIMpeuZWA_iWC_UPT69h-14" value="" style="endArrow=none;dashed=1;html=1;rounded=0;fontSize=12;startSize=8;endSize=8;curved=1;" edge="1" parent="SIMpeuZWA_iWC_UPT69h-2">
          <mxGeometry width="50" height="50" relative="1" as="geometry">
            <mxPoint y="56" as="sourcePoint" />
            <mxPoint x="516" y="56" as="targetPoint" />
          </mxGeometry>
        </mxCell>
        <mxCell id="SIMpeuZWA_iWC_UPT69h-16" value="Désignation" style="text;html=1;align=center;verticalAlign=middle;resizable=0;points=[];autosize=1;strokeColor=none;fillColor=none;fontSize=16;" vertex="1" parent="SIMpeuZWA_iWC_UPT69h-2">
          <mxGeometry x="70" y="56" width="103" height="31" as="geometry" />
        </mxCell>
        <mxCell id="SIMpeuZWA_iWC_UPT69h-15" value="Référence" style="text;html=1;align=center;verticalAlign=middle;resizable=0;points=[];autosize=1;strokeColor=none;fillColor=none;fontSize=16;" vertex="1" parent="SIMpeuZWA_iWC_UPT69h-2">
          <mxGeometry x="75" y="25" width="92" height="31" as="geometry" />
        </mxCell>
        <mxCell id="SIMpeuZWA_iWC_UPT69h-17" value="Marque" style="text;html=1;align=center;verticalAlign=middle;resizable=0;points=[];autosize=1;strokeColor=none;fillColor=none;fontSize=16;" vertex="1" parent="SIMpeuZWA_iWC_UPT69h-2">
          <mxGeometry x="85" y="91" width="72" height="31" as="geometry" />
        </mxCell>
        <mxCell id="SIMpeuZWA_iWC_UPT69h-18" value="Stock" style="text;html=1;align=center;verticalAlign=middle;resizable=0;points=[];autosize=1;strokeColor=none;fillColor=none;fontSize=16;" vertex="1" parent="SIMpeuZWA_iWC_UPT69h-2">
          <mxGeometry x="92" y="134" width="58" height="31" as="geometry" />
        </mxCell>
        <mxCell id="SIMpeuZWA_iWC_UPT69h-19" value="Prix" style="text;html=1;align=center;verticalAlign=middle;resizable=0;points=[];autosize=1;strokeColor=none;fillColor=none;fontSize=16;" vertex="1" parent="SIMpeuZWA_iWC_UPT69h-2">
          <mxGeometry x="98.5" y="176" width="46" height="31" as="geometry" />
        </mxCell>
        <mxCell id="SIMpeuZWA_iWC_UPT69h-20" value="Type" style="text;html=1;align=center;verticalAlign=middle;resizable=0;points=[];autosize=1;strokeColor=none;fillColor=none;fontSize=16;" vertex="1" parent="SIMpeuZWA_iWC_UPT69h-2">
          <mxGeometry x="95" y="220" width="53" height="31" as="geometry" />
        </mxCell>
        <mxCell id="SIMpeuZWA_iWC_UPT69h-21" value="Grammage" style="text;html=1;align=center;verticalAlign=middle;resizable=0;points=[];autosize=1;strokeColor=none;fillColor=none;fontSize=16;" vertex="1" parent="SIMpeuZWA_iWC_UPT69h-2">
          <mxGeometry x="72" y="261" width="98" height="31" as="geometry" />
        </mxCell>
        <mxCell id="SIMpeuZWA_iWC_UPT69h-22" value="Couleur" style="text;html=1;align=center;verticalAlign=middle;resizable=0;points=[];autosize=1;strokeColor=none;fillColor=none;fontSize=16;" vertex="1" parent="SIMpeuZWA_iWC_UPT69h-2">
          <mxGeometry x="84" y="306" width="74" height="31" as="geometry" />
        </mxCell>
        <mxCell id="SIMpeuZWA_iWC_UPT69h-24" value="" style="endArrow=none;dashed=1;html=1;rounded=0;fontSize=12;startSize=8;endSize=8;curved=1;exitX=0;exitY=0.75;exitDx=0;exitDy=0;entryX=1;entryY=0.75;entryDx=0;entryDy=0;" edge="1" parent="SIMpeuZWA_iWC_UPT69h-2">
          <mxGeometry width="50" height="50" relative="1" as="geometry">
            <mxPoint y="235" as="sourcePoint" />
            <mxPoint x="519" y="235" as="targetPoint" />
          </mxGeometry>
        </mxCell>
        <mxCell id="SIMpeuZWA_iWC_UPT69h-25" value="" style="endArrow=none;dashed=1;html=1;rounded=0;fontSize=12;startSize=8;endSize=8;curved=1;exitX=0;exitY=0.75;exitDx=0;exitDy=0;entryX=1;entryY=0.75;entryDx=0;entryDy=0;" edge="1" parent="SIMpeuZWA_iWC_UPT69h-2">
          <mxGeometry width="50" height="50" relative="1" as="geometry">
            <mxPoint x="-3" y="278" as="sourcePoint" />
            <mxPoint x="516" y="278" as="targetPoint" />
          </mxGeometry>
        </mxCell>
        <mxCell id="SIMpeuZWA_iWC_UPT69h-26" value="Text String" style="text;html=1;align=center;verticalAlign=middle;resizable=0;points=[];autosize=1;strokeColor=none;fillColor=none;fontSize=16;" vertex="1" parent="SIMpeuZWA_iWC_UPT69h-2">
          <mxGeometry x="349" y="56" width="94" height="31" as="geometry" />
        </mxCell>
        <mxCell id="SIMpeuZWA_iWC_UPT69h-27" value="Text String" style="text;html=1;align=center;verticalAlign=middle;resizable=0;points=[];autosize=1;strokeColor=none;fillColor=none;fontSize=16;" vertex="1" parent="SIMpeuZWA_iWC_UPT69h-2">
          <mxGeometry x="349" y="25" width="94" height="31" as="geometry" />
        </mxCell>
        <mxCell id="SIMpeuZWA_iWC_UPT69h-28" value="Text String" style="text;html=1;align=center;verticalAlign=middle;resizable=0;points=[];autosize=1;strokeColor=none;fillColor=none;fontSize=16;" vertex="1" parent="SIMpeuZWA_iWC_UPT69h-2">
          <mxGeometry x="349" y="91" width="94" height="31" as="geometry" />
        </mxCell>
        <mxCell id="SIMpeuZWA_iWC_UPT69h-29" value="Text Int" style="text;html=1;align=center;verticalAlign=middle;resizable=0;points=[];autosize=1;strokeColor=none;fillColor=none;fontSize=16;" vertex="1" parent="SIMpeuZWA_iWC_UPT69h-2">
          <mxGeometry x="361" y="134" width="70" height="31" as="geometry" />
        </mxCell>
        <mxCell id="SIMpeuZWA_iWC_UPT69h-30" value="Text Float" style="text;html=1;align=center;verticalAlign=middle;resizable=0;points=[];autosize=1;strokeColor=none;fillColor=none;fontSize=16;" vertex="1" parent="SIMpeuZWA_iWC_UPT69h-2">
          <mxGeometry x="352.5" y="176" width="87" height="31" as="geometry" />
        </mxCell>
        <mxCell id="SIMpeuZWA_iWC_UPT69h-31" value="RadioBox" style="text;html=1;align=center;verticalAlign=middle;resizable=0;points=[];autosize=1;strokeColor=none;fillColor=none;fontSize=16;" vertex="1" parent="SIMpeuZWA_iWC_UPT69h-2">
          <mxGeometry x="353" y="220" width="87" height="31" as="geometry" />
        </mxCell>
        <mxCell id="SIMpeuZWA_iWC_UPT69h-32" value="CheckBox" style="text;html=1;align=center;verticalAlign=middle;resizable=0;points=[];autosize=1;strokeColor=none;fillColor=none;fontSize=16;" vertex="1" parent="SIMpeuZWA_iWC_UPT69h-2">
          <mxGeometry x="350" y="261" width="91" height="31" as="geometry" />
        </mxCell>
        <mxCell id="SIMpeuZWA_iWC_UPT69h-33" value="ComboBox" style="text;html=1;align=center;verticalAlign=middle;resizable=0;points=[];autosize=1;strokeColor=none;fillColor=none;fontSize=16;" vertex="1" parent="SIMpeuZWA_iWC_UPT69h-2">
          <mxGeometry x="347" y="306" width="97" height="31" as="geometry" />
        </mxCell>
        <mxCell id="SIMpeuZWA_iWC_UPT69h-3" value="JPanel Boutons" style="swimlane;whiteSpace=wrap;html=1;fontSize=16;" vertex="1" parent="SIMpeuZWA_iWC_UPT69h-1">
          <mxGeometry x="7" y="377" width="520" height="104" as="geometry" />
        </mxCell>
        <mxCell id="SIMpeuZWA_iWC_UPT69h-4" value="" style="endArrow=none;dashed=1;html=1;rounded=0;fontSize=12;startSize=8;endSize=8;curved=1;entryX=0.5;entryY=0;entryDx=0;entryDy=0;exitX=0.5;exitY=1;exitDx=0;exitDy=0;" edge="1" parent="SIMpeuZWA_iWC_UPT69h-1" source="SIMpeuZWA_iWC_UPT69h-2" target="SIMpeuZWA_iWC_UPT69h-2">
          <mxGeometry width="50" height="50" relative="1" as="geometry">
            <mxPoint x="257" y="289" as="sourcePoint" />
            <mxPoint x="307" y="239" as="targetPoint" />
          </mxGeometry>
        </mxCell>
        <mxCell id="SIMpeuZWA_iWC_UPT69h-5" value="" style="endArrow=none;dashed=1;html=1;rounded=0;fontSize=12;startSize=8;endSize=8;curved=1;entryX=0.25;entryY=0;entryDx=0;entryDy=0;exitX=0.25;exitY=1;exitDx=0;exitDy=0;" edge="1" parent="SIMpeuZWA_iWC_UPT69h-1" source="SIMpeuZWA_iWC_UPT69h-3" target="SIMpeuZWA_iWC_UPT69h-3">
          <mxGeometry width="50" height="50" relative="1" as="geometry">
            <mxPoint x="257" y="379" as="sourcePoint" />
            <mxPoint x="307" y="329" as="targetPoint" />
          </mxGeometry>
        </mxCell>
        <mxCell id="SIMpeuZWA_iWC_UPT69h-6" value="" style="endArrow=none;dashed=1;html=1;rounded=0;fontSize=12;startSize=8;endSize=8;curved=1;exitX=0.5;exitY=1;exitDx=0;exitDy=0;entryX=0.5;entryY=0;entryDx=0;entryDy=0;" edge="1" parent="SIMpeuZWA_iWC_UPT69h-1" source="SIMpeuZWA_iWC_UPT69h-3" target="SIMpeuZWA_iWC_UPT69h-3">
          <mxGeometry width="50" height="50" relative="1" as="geometry">
            <mxPoint x="257" y="379" as="sourcePoint" />
            <mxPoint x="307" y="329" as="targetPoint" />
          </mxGeometry>
        </mxCell>
        <mxCell id="SIMpeuZWA_iWC_UPT69h-7" value="" style="endArrow=none;dashed=1;html=1;rounded=0;fontSize=12;startSize=8;endSize=8;curved=1;exitX=0.75;exitY=1;exitDx=0;exitDy=0;entryX=0.75;entryY=0;entryDx=0;entryDy=0;" edge="1" parent="SIMpeuZWA_iWC_UPT69h-1" source="SIMpeuZWA_iWC_UPT69h-3" target="SIMpeuZWA_iWC_UPT69h-3">
          <mxGeometry width="50" height="50" relative="1" as="geometry">
            <mxPoint x="257" y="379" as="sourcePoint" />
            <mxPoint x="307" y="329" as="targetPoint" />
          </mxGeometry>
        </mxCell>
        <mxCell id="SIMpeuZWA_iWC_UPT69h-8" value="" style="endArrow=none;dashed=1;html=1;rounded=0;fontSize=12;startSize=8;endSize=8;curved=1;exitX=0;exitY=0.5;exitDx=0;exitDy=0;entryX=1;entryY=0.5;entryDx=0;entryDy=0;" edge="1" parent="SIMpeuZWA_iWC_UPT69h-1" source="SIMpeuZWA_iWC_UPT69h-2" target="SIMpeuZWA_iWC_UPT69h-2">
          <mxGeometry width="50" height="50" relative="1" as="geometry">
            <mxPoint x="257" y="349" as="sourcePoint" />
            <mxPoint x="307" y="299" as="targetPoint" />
          </mxGeometry>
        </mxCell>
        <mxCell id="SIMpeuZWA_iWC_UPT69h-9" value="" style="endArrow=none;dashed=1;html=1;rounded=0;fontSize=12;startSize=8;endSize=8;curved=1;exitX=0;exitY=0.75;exitDx=0;exitDy=0;entryX=1;entryY=0.75;entryDx=0;entryDy=0;" edge="1" parent="SIMpeuZWA_iWC_UPT69h-1" source="SIMpeuZWA_iWC_UPT69h-2" target="SIMpeuZWA_iWC_UPT69h-2">
          <mxGeometry width="50" height="50" relative="1" as="geometry">
            <mxPoint x="257" y="349" as="sourcePoint" />
            <mxPoint x="307" y="299" as="targetPoint" />
          </mxGeometry>
        </mxCell>
        <mxCell id="SIMpeuZWA_iWC_UPT69h-10" value="" style="endArrow=none;dashed=1;html=1;rounded=0;fontSize=12;startSize=8;endSize=8;curved=1;exitX=0;exitY=0.25;exitDx=0;exitDy=0;entryX=1;entryY=0.25;entryDx=0;entryDy=0;" edge="1" parent="SIMpeuZWA_iWC_UPT69h-1" source="SIMpeuZWA_iWC_UPT69h-2" target="SIMpeuZWA_iWC_UPT69h-2">
          <mxGeometry width="50" height="50" relative="1" as="geometry">
            <mxPoint x="257" y="349" as="sourcePoint" />
            <mxPoint x="307" y="299" as="targetPoint" />
          </mxGeometry>
        </mxCell>
        <mxCell id="SIMpeuZWA_iWC_UPT69h-11" value="" style="endArrow=none;dashed=1;html=1;rounded=0;fontSize=12;startSize=8;endSize=8;curved=1;" edge="1" parent="1">
          <mxGeometry width="50" height="50" relative="1" as="geometry">
            <mxPoint x="-389" y="266" as="sourcePoint" />
            <mxPoint x="127" y="266" as="targetPoint" />
          </mxGeometry>
        </mxCell>
      </root>
    </mxGraphModel>
  </diagram>
</mxfile>
